<svg width="25" height="25" viewBox="0 0 25 25" fill="none" xmlns="http://www.w3.org/2000/svg">
<path d="M19.8643 14.4584L13.5413 20.7709V22.9167H15.6872L21.9997 16.5938M23.6455 14.1459L22.3122 12.8125C22.262 12.7573 22.2009 12.7131 22.1328 12.6826C22.0646 12.6522 21.991 12.6361 21.9163 12.6354C21.7601 12.6459 21.6143 12.6979 21.5101 12.8125L20.4684 13.8542L22.6038 15.9375L23.6455 14.8959C23.8434 14.6875 23.8434 14.3542 23.6455 14.1459ZM11.458 18.75H4.16634V8.33335L12.4997 13.5417L20.833 8.33335V10.4167H22.9163V6.25002C22.9163 5.10419 21.9788 4.16669 20.833 4.16669H4.16634C3.02051 4.16669 2.08301 5.10419 2.08301 6.25002V18.75C2.08301 19.8959 3.02051 20.8334 4.16634 20.8334H11.458V18.75ZM20.833 6.25002L12.4997 11.4584L4.16634 6.25002H20.833Z" fill="#6F8270"/>
</svg>
