<svg width="25" height="25" viewBox="0 0 25 25" fill="none" xmlns="http://www.w3.org/2000/svg">
<path fill-rule="evenodd" clip-rule="evenodd" d="M18.2847 16.7771C18.5128 16.6629 18.7749 16.6365 19.0212 16.7027C19.2676 16.769 19.481 16.9233 19.6212 17.1364L19.6816 17.2427L21.7649 21.4094C21.8393 21.5579 21.877 21.7222 21.8749 21.8883C21.8729 22.0544 21.8311 22.2177 21.7531 22.3644C21.6751 22.5111 21.5632 22.637 21.4266 22.7316C21.29 22.8262 21.1328 22.8868 20.968 22.9083L20.8337 22.9166H4.167C4.00083 22.9167 3.83705 22.877 3.68934 22.8008C3.54164 22.7247 3.4143 22.6143 3.31795 22.4789C3.2216 22.3435 3.15905 22.187 3.13551 22.0225C3.11196 21.858 3.12812 21.6903 3.18263 21.5333L3.23471 21.4083L5.31804 17.2416C5.43481 17.0003 5.64015 16.8132 5.89133 16.7195C6.14251 16.6257 6.42019 16.6323 6.66657 16.7381C6.91296 16.8438 7.10908 17.0405 7.21413 17.2872C7.31918 17.5339 7.32506 17.8116 7.23054 18.0625L7.18159 18.1739L5.85242 20.8333H19.1483L17.8191 18.1739C17.6957 17.9269 17.6755 17.6411 17.7628 17.3791C17.8501 17.1172 18.0378 16.9007 18.2847 16.7771ZM12.5003 2.08331C14.4342 2.08331 16.2889 2.85154 17.6563 4.21899C19.0238 5.58645 19.792 7.44111 19.792 9.37498C19.792 11.8562 18.4493 13.8719 17.0597 15.3021C16.2922 16.0818 15.4484 16.7825 14.541 17.3937L14.1524 17.65L13.8066 17.8677L13.6514 17.9614L13.3837 18.1156C12.8337 18.4281 12.167 18.4281 11.617 18.1156L11.3493 17.9604L11.0264 17.7635L10.8483 17.65L10.4597 17.3937C9.55228 16.7825 8.70847 16.0818 7.94096 15.3021C6.55138 13.8719 5.20867 11.8562 5.20867 9.37498C5.20867 7.44111 5.9769 5.58645 7.34435 4.21899C8.7118 2.85154 10.5665 2.08331 12.5003 2.08331ZM12.5003 4.16665C11.119 4.16665 9.79424 4.71538 8.81749 5.69213C7.84074 6.66888 7.292 7.99364 7.292 9.37498C7.292 11.0791 8.21909 12.5989 9.43471 13.85C10.1659 14.5885 10.974 15.2468 11.8451 15.8135L12.1993 16.0396C12.309 16.1069 12.4094 16.1673 12.5003 16.2208L12.8024 16.0396L13.1555 15.8135C14.0267 15.2468 14.8348 14.5885 15.566 13.85C16.7816 12.6 17.7087 11.0791 17.7087 9.37498C17.7087 7.99364 17.1599 6.66888 16.1832 5.69213C15.2064 4.71538 13.8817 4.16665 12.5003 4.16665ZM12.5003 6.24998C13.3291 6.24998 14.124 6.57922 14.71 7.16527C15.2961 7.75132 15.6253 8.54618 15.6253 9.37498C15.6253 10.2038 15.2961 10.9986 14.71 11.5847C14.124 12.1707 13.3291 12.5 12.5003 12.5C11.6715 12.5 10.8767 12.1707 10.2906 11.5847C9.70458 10.9986 9.37534 10.2038 9.37534 9.37498C9.37534 8.54618 9.70458 7.75132 10.2906 7.16527C10.8767 6.57922 11.6715 6.24998 12.5003 6.24998ZM12.5003 8.33331C12.2241 8.33331 11.9591 8.44306 11.7638 8.63841C11.5684 8.83376 11.4587 9.09871 11.4587 9.37498C11.4587 9.65125 11.5684 9.9162 11.7638 10.1115C11.9591 10.3069 12.2241 10.4166 12.5003 10.4166C12.7766 10.4166 13.0416 10.3069 13.2369 10.1115C13.4323 9.9162 13.542 9.65125 13.542 9.37498C13.542 9.09871 13.4323 8.83376 13.2369 8.63841C13.0416 8.44306 12.7766 8.33331 12.5003 8.33331Z" fill="#6F8270"/>
</svg>
