<svg width="25" height="25" viewBox="0 0 25 25" fill="none" xmlns="http://www.w3.org/2000/svg">
<path d="M4.5 2.24414H8.80469C9.13749 2.24391 9.46274 2.34362 9.73828 2.53027C10.0138 2.717 10.2274 2.98177 10.3506 3.29102H10.3496L11.5371 6.21191L11.5381 6.21289C11.6596 6.51488 11.6899 6.84606 11.625 7.16504C11.56 7.48419 11.402 7.7773 11.1719 8.00781L9.54492 9.64941C9.80829 11.0872 10.5014 12.4118 11.5342 13.4473C12.5667 14.4825 13.8895 15.178 15.3262 15.4453L16.9844 13.8037L17.0752 13.7217C17.2929 13.5389 17.5543 13.4144 17.835 13.3613C18.155 13.3009 18.4858 13.3361 18.7861 13.4619H18.7871L21.7324 14.6416H21.7334C22.0381 14.7687 22.2984 14.9844 22.4805 15.2598C22.6623 15.5348 22.7581 15.8578 22.7559 16.1875V20.3125C22.7559 20.9605 22.4982 21.5818 22.04 22.04C21.5818 22.4982 20.9605 22.7558 20.3125 22.7559H20.1738C12.4652 22.3126 8.05378 18.836 5.53516 14.9678C3.17715 11.3461 2.48197 7.38776 2.27832 5.27246L2.24414 4.875C2.21857 4.55462 2.25631 4.23248 2.35547 3.92676C2.45467 3.62095 2.61341 3.33719 2.82227 3.09277C3.03106 2.84853 3.28582 2.64756 3.57227 2.50195C3.85884 2.35628 4.17166 2.26884 4.49219 2.24414L4.5 2.24316V2.24414ZM4.6875 4.00586C4.50682 4.00586 4.33284 4.0783 4.20508 4.20605C4.07751 4.33378 4.00586 4.50696 4.00586 4.6875V4.74219L4.04492 5.19238C4.27388 7.5288 4.99319 11.1291 7.16699 14.3066C9.48231 17.6909 13.4538 20.6052 20.2705 20.9941H20.2715C20.3609 20.9997 20.4505 20.9872 20.5352 20.958C20.6199 20.9288 20.6985 20.8827 20.7656 20.8232C20.8326 20.7638 20.8877 20.6919 20.9268 20.6113C20.9658 20.5307 20.988 20.443 20.9932 20.3535V16.2539L18.1719 15.125L15.9766 17.3057L15.9414 17.3398L15.8936 17.334L15.5186 17.2871C12.0826 16.8566 10.129 14.9202 9.03711 13.0859C8.49177 12.1698 8.16115 11.2786 7.9668 10.6123C7.86962 10.2791 7.80559 10.0015 7.7666 9.80469C7.74717 9.70659 7.7342 9.62837 7.72559 9.57324C7.72129 9.54577 7.7179 9.52372 7.71582 9.50781C7.71483 9.5002 7.71365 9.49021 7.71289 9.48145L7.66602 9.10645L7.66016 9.05762L7.69434 9.02344L9.86621 6.82812L8.74316 4.00586H4.6875Z" fill="#6F8270" stroke="#191818" stroke-width="0.2"/>
</svg>
